<svg width="31" height="20" viewBox="0 0 31 20" fill="none" xmlns="http://www.w3.org/2000/svg">
<path d="M0 18.3333C0 17.4128 0.746192 16.6667 1.66667 16.6667H29.3333C30.2538 16.6667 31 17.4128 31 18.3333V18.3333C31 19.2538 30.2538 20 29.3333 20H1.66667C0.746194 20 0 19.2538 0 18.3333V18.3333Z" fill="#FFFDFD"/>
<path d="M0 10C0 9.07954 0.746192 8.33334 1.66667 8.33334H29.3333C30.2538 8.33334 31 9.07954 31 10V10C31 10.9205 30.2538 11.6667 29.3333 11.6667H1.66667C0.746194 11.6667 0 10.9205 0 10V10Z" fill="#FFFDFD"/>
<path d="M0 1.66667C0 0.746192 0.746192 0 1.66667 0H29.3333C30.2538 0 31 0.746192 31 1.66667V1.66667C31 2.58714 30.2538 3.33333 29.3333 3.33333H1.66667C0.746194 3.33333 0 2.58714 0 1.66667V1.66667Z" fill="#FFFDFD"/>
</svg>
